<svg width="500" height="500" viewBox="0 0 500 500" fill="none" xmlns="http://www.w3.org/2000/svg">
<g clip-path="url(#clip0_716_125)">
<path d="M437.5 31.25C445.788 31.25 453.737 34.5424 459.597 40.4029C465.458 46.2634 468.75 54.212 468.75 62.5V312.5C468.75 320.788 465.458 328.737 459.597 334.597C453.737 340.458 445.788 343.75 437.5 343.75H137.938C121.363 343.754 105.468 350.341 93.75 362.063L31.25 424.563V62.5C31.25 54.212 34.5424 46.2634 40.4029 40.4029C46.2634 34.5424 54.212 31.25 62.5 31.25H437.5ZM62.5 0C45.924 0 30.0269 6.5848 18.3058 18.3058C6.5848 30.0269 0 45.924 0 62.5L0 462.281C0.000656715 465.373 0.918518 468.395 2.63741 470.965C4.35631 473.535 6.79897 475.537 9.65623 476.718C12.5135 477.899 15.6569 478.206 18.6886 477.6C21.7203 476.993 24.5041 475.501 26.6875 473.312L115.844 384.156C121.703 378.295 129.65 375.002 137.938 375H437.5C454.076 375 469.973 368.415 481.694 356.694C493.415 344.973 500 329.076 500 312.5V62.5C500 45.924 493.415 30.0269 481.694 18.3058C469.973 6.5848 454.076 0 437.5 0L62.5 0Z" fill="black"/>
<path d="M93.75 109.375C93.75 105.231 95.3962 101.257 98.3265 98.3265C101.257 95.3962 105.231 93.75 109.375 93.75H390.625C394.769 93.75 398.743 95.3962 401.674 98.3265C404.604 101.257 406.25 105.231 406.25 109.375C406.25 113.519 404.604 117.493 401.674 120.424C398.743 123.354 394.769 125 390.625 125H109.375C105.231 125 101.257 123.354 98.3265 120.424C95.3962 117.493 93.75 113.519 93.75 109.375ZM93.75 187.5C93.75 183.356 95.3962 179.382 98.3265 176.451C101.257 173.521 105.231 171.875 109.375 171.875H390.625C394.769 171.875 398.743 173.521 401.674 176.451C404.604 179.382 406.25 183.356 406.25 187.5C406.25 191.644 404.604 195.618 401.674 198.549C398.743 201.479 394.769 203.125 390.625 203.125H109.375C105.231 203.125 101.257 201.479 98.3265 198.549C95.3962 195.618 93.75 191.644 93.75 187.5ZM93.75 265.625C93.75 261.481 95.3962 257.507 98.3265 254.576C101.257 251.646 105.231 250 109.375 250H265.625C269.769 250 273.743 251.646 276.674 254.576C279.604 257.507 281.25 261.481 281.25 265.625C281.25 269.769 279.604 273.743 276.674 276.674C273.743 279.604 269.769 281.25 265.625 281.25H109.375C105.231 281.25 101.257 279.604 98.3265 276.674C95.3962 273.743 93.75 269.769 93.75 265.625Z" fill="black"/>
</g>
<defs>
<clipPath id="clip0_716_125">
<rect width="500" height="500" fill="white"/>
</clipPath>
</defs>
</svg>
