<svg width="516" height="168" viewBox="0 0 516 168" fill="none" xmlns="http://www.w3.org/2000/svg">
<g filter="url(#filter0_bd_639_120)">
<rect x="4" y="60" width="508" height="100" rx="35" fill="#576494"/>
</g>
<path d="M404.792 82.2915H355.208L359.583 131.875L380 137.708L400.417 131.875L404.792 82.2915Z" fill="#E65100"/>
<path d="M380 86.6665V133.187L396.333 128.521L399.979 86.6665H380Z" fill="#FF6D00"/>
<path d="M380 111.458V105.625H392.542L391.521 122.396L380 126.188V120.063L385.979 118.021L386.417 111.458H380V111.458ZM392.979 99.7918L393.417 93.9585H380V99.7918H392.979Z" fill="white"/>
<path d="M380 120.063V126.188L368.479 122.396L367.896 114.375H373.729L374.021 118.021L380 120.063ZM372.854 99.7918H380V93.9585H366.729L367.75 111.458H380V105.625H373.292L372.854 99.7918Z" fill="#EEEEEE"/>
<path opacity="0.07" d="M166.474 0.729167L165.744 12.3958L164.724 29.1667L153.203 32.9583L141.682 29.1667L141.244 21.1458H147.078L147.224 24.7917L153.203 26.8333L159.182 24.7917L159.619 18.2292H153.203H146.786L146.494 12.3958H153.203H159.911L160.349 6.5625H153.203H140.224L139.786 0.729167H153.203H166.474ZM167.249 0H166.474H153.203H139.786H139L139.058 0.783125L139.496 6.61646L139.547 7.29167H140.224H153.203H159.563L159.234 11.6667H153.203H146.494H145.727L145.765 12.4323L146.057 18.2656L146.092 18.9583H146.786H153.203H158.841L158.488 24.2579L153.203 26.0633L147.932 24.2637L147.807 21.1167L147.778 20.4167H147.078H141.244H140.474L140.517 21.1852L140.954 29.206L140.982 29.7033L141.454 29.8594L152.975 33.651L153.203 33.7254L153.43 33.651L164.951 29.8594L165.421 29.7048L165.451 29.2104L166.472 12.4396L167.201 0.774375L167.249 0Z" fill="black"/>
<path d="M235.488 85.4648L239.319 128.879C239.478 130.683 240.734 132.204 242.475 132.702L257.996 137.137C259.306 137.511 260.693 137.511 262.002 137.137L277.523 132.702C279.265 132.204 280.52 130.685 280.679 128.879L284.51 85.4648C284.662 83.7586 283.319 82.2915 281.607 82.2915H238.393C236.681 82.2915 235.338 83.7586 235.488 85.4648Z" fill="url(#paint0_linear_639_120)"/>
<path d="M260 86.6665V133.187L274.402 129.072C275.565 128.739 276.402 127.724 276.507 126.521L279.841 88.2517C279.915 87.3986 279.244 86.6665 278.388 86.6665H260Z" fill="#35C1F1"/>
<path d="M273.271 93.9585H260V99.7918H267.146L266.708 105.625H260V111.458H266.417L265.979 118.021L260 120.063V126.188L271.521 122.396L272.542 105.625L273.271 93.9585Z" fill="white"/>
<path d="M260 93.9585V99.7918H247.021L246.583 93.9585H260ZM253.292 105.625L253.583 111.458H260V105.625H253.292ZM253.875 114.375H248.042L248.479 122.396L260 126.188V120.063L254.021 118.021L253.875 114.375Z" fill="#D6E0E9"/>
<path opacity="0.05" d="M273.271 93.9583L272.542 105.625L271.521 122.396L260 126.187L248.479 122.396L248.042 114.375H253.875L254.021 118.021L260 120.063L265.979 118.021L266.417 111.458H260H253.583L253.292 105.625H260H266.708L267.146 99.7917H260H247.021L246.583 93.9583H260H273.271ZM274.822 92.5H273.271H260H246.583H245.011L245.129 94.0677L245.567 99.901L245.667 101.25H247.021H260H265.574L265.355 104.167H260H253.292H251.759L251.835 105.698L252.126 111.531L252.196 112.917H248.042H246.502L246.586 114.454L247.024 122.475L247.078 123.469L248.024 123.781L259.545 127.573L260 127.723L260.456 127.573L271.977 123.781L272.916 123.472L272.976 122.485L273.997 105.714L274.726 94.0502L274.822 92.5ZM255.276 112.917H260H264.858L264.588 116.955L260 118.521L255.438 116.964L255.332 114.317L255.276 112.917Z" fill="black"/>
<path d="M126.069 82.2916C123.801 82.2989 122.229 82.4987 120.329 82.8268C114.717 83.8039 113.695 85.8558 113.695 89.6372V95.4166H126.82V98.3333H113.196H106.852C103.008 98.3333 99.6436 100.145 98.5776 104.486C97.373 109.469 97.319 112.59 98.5776 117.793C99.5328 121.674 101.637 124.583 105.483 124.583H110.779V117.14C110.779 112.815 114.697 108.542 119.185 108.542H129.738C133.417 108.542 137.029 105.826 137.029 102.158V89.6372C137.029 86.0804 134.464 83.4204 130.878 82.8239C130.967 82.8152 128.317 82.2829 126.069 82.2916ZM118.8 88.1249C119.998 88.1249 120.988 89.1122 120.988 90.3154C120.988 91.5302 119.998 92.4999 118.8 92.4999C117.58 92.4999 116.613 91.5316 116.613 90.3154C116.613 89.1166 117.58 88.1249 118.8 88.1249Z" fill="#0277BD"/>
<path d="M124.655 137.708C126.923 137.701 128.495 137.501 130.395 137.173C136.007 136.196 137.029 134.144 137.029 130.363V124.583H123.904V121.667H137.53H143.873C147.717 121.667 151.082 119.855 152.148 115.514C153.352 110.531 153.406 107.41 152.148 102.207C151.191 98.3259 149.087 95.4165 145.241 95.4165H139.945V102.86C139.945 107.185 136.027 111.458 131.539 111.458H120.986C117.307 111.458 113.695 114.174 113.695 117.841V130.363C113.695 133.919 116.26 136.579 119.846 137.176C119.757 137.185 122.407 137.717 124.655 137.708ZM131.925 131.875C130.728 131.875 129.738 130.888 129.738 129.684C129.738 128.47 130.728 127.5 131.925 127.5C133.146 127.5 134.113 128.468 134.113 129.684C134.113 130.883 133.144 131.875 131.925 131.875Z" fill="#FFC107"/>
<defs>
<filter id="filter0_bd_639_120" x="0" y="56" width="516" height="112" filterUnits="userSpaceOnUse" color-interpolation-filters="sRGB">
<feFlood flood-opacity="0" result="BackgroundImageFix"/>
<feGaussianBlur in="BackgroundImageFix" stdDeviation="2"/>
<feComposite in2="SourceAlpha" operator="in" result="effect1_backgroundBlur_639_120"/>
<feColorMatrix in="SourceAlpha" type="matrix" values="0 0 0 0 0 0 0 0 0 0 0 0 0 0 0 0 0 0 127 0" result="hardAlpha"/>
<feOffset dy="4"/>
<feGaussianBlur stdDeviation="2"/>
<feComposite in2="hardAlpha" operator="out"/>
<feColorMatrix type="matrix" values="0 0 0 0 0 0 0 0 0 0 0 0 0 0 0 0 0 0 0.25 0"/>
<feBlend mode="normal" in2="effect1_backgroundBlur_639_120" result="effect2_dropShadow_639_120"/>
<feBlend mode="normal" in="SourceGraphic" in2="effect2_dropShadow_639_120" result="shape"/>
</filter>
<linearGradient id="paint0_linear_639_120" x1="248.815" y1="70.9923" x2="272.094" y2="134.95" gradientUnits="userSpaceOnUse">
<stop stop-color="#2AA4F4"/>
<stop offset="1" stop-color="#007AD9"/>
</linearGradient>
</defs>
</svg>
