<svg width="516" height="108" viewBox="0 0 516 108" fill="none" xmlns="http://www.w3.org/2000/svg">
<g filter="url(#filter0_bd_639_120)">
<rect x="4" width="508" height="100" rx="35" fill="#576494"/>
</g>
<path d="M404.792 22.2915H355.208L359.583 71.8748L380 77.7082L400.417 71.8748L404.792 22.2915Z" fill="#E65100"/>
<path d="M380 26.6665V73.1873L396.333 68.5207L399.979 26.6665H380Z" fill="#FF6D00"/>
<path d="M380 51.4585V45.6252H392.542L391.521 62.396L380 66.1877V60.0627L385.979 58.021L386.417 51.4585H380V51.4585ZM392.979 39.7918L393.417 33.9585H380V39.7918H392.979Z" fill="white"/>
<path d="M380 60.0627V66.1877L368.479 62.396L367.896 54.3752H373.729L374.021 58.021L380 60.0627ZM372.854 39.7918H380V33.9585H366.729L367.75 51.4585H380V45.6252H373.292L372.854 39.7918Z" fill="#EEEEEE"/>
<path d="M235.488 25.4648L239.319 68.8794C239.478 70.6834 240.734 72.2044 242.475 72.7017L257.996 77.1365C259.306 77.5113 260.693 77.5113 262.002 77.1365L277.523 72.7017C279.265 72.2044 280.52 70.6848 280.679 68.8794L284.51 25.4648C284.662 23.7586 283.319 22.2915 281.607 22.2915H238.393C236.681 22.2915 235.338 23.7586 235.488 25.4648Z" fill="url(#paint0_linear_639_120)"/>
<path d="M260 26.6665V73.1873L274.402 69.0719C275.565 68.7394 276.402 67.7244 276.507 66.5213L279.841 28.2517C279.915 27.3986 279.244 26.6665 278.388 26.6665H260Z" fill="#35C1F1"/>
<path d="M273.271 33.9585H260V39.7918H267.146L266.708 45.6252H260V51.4585H266.417L265.979 58.021L260 60.0627V66.1877L271.521 62.396L272.542 45.6252L273.271 33.9585Z" fill="white"/>
<path d="M260 33.9585V39.7918H247.021L246.583 33.9585H260ZM253.292 45.6252L253.583 51.4585H260V45.6252H253.292ZM253.875 54.3752H248.042L248.479 62.396L260 66.1877V60.0627L254.021 58.021L253.875 54.3752Z" fill="#D6E0E9"/>
<path opacity="0.05" d="M273.271 33.9583L272.542 45.625L271.521 62.3958L260 66.1875L248.479 62.3958L248.042 54.375H253.875L254.021 58.0208L260 60.0625L265.979 58.0208L266.417 51.4583H260H253.583L253.292 45.625H260H266.708L267.146 39.7917H260H247.021L246.583 33.9583H260H273.271ZM274.822 32.5H273.271H260H246.583H245.011L245.129 34.0677L245.567 39.901L245.667 41.25H247.021H260H265.574L265.355 44.1667H260H253.292H251.759L251.835 45.6979L252.126 51.5312L252.196 52.9167H248.042H246.502L246.586 54.4538L247.024 62.4746L247.078 63.4692L248.024 63.7813L259.545 67.5729L260 67.7231L260.456 67.5729L271.977 63.7813L272.916 63.4721L272.976 62.4848L273.997 45.714L274.726 34.0502L274.822 32.5ZM255.276 52.9167H260H264.858L264.588 56.9548L260 58.521L255.438 56.9635L255.332 54.3167L255.276 52.9167Z" fill="black"/>
<path d="M126.069 22.2916C123.801 22.2989 122.229 22.4987 120.329 22.8268C114.717 23.8039 113.695 25.8558 113.695 29.6372V35.4166H126.82V38.3333H113.196H106.852C103.008 38.3333 99.6436 40.1445 98.5776 44.486C97.373 49.4691 97.319 52.5899 98.5776 57.7933C99.5328 61.6739 101.637 64.5833 105.483 64.5833H110.779V57.1399C110.779 52.8145 114.697 48.5416 119.185 48.5416H129.738C133.417 48.5416 137.029 45.8262 137.029 42.1585V29.6372C137.029 26.0804 134.464 23.4204 130.878 22.8239C130.967 22.8152 128.317 22.2829 126.069 22.2916ZM118.8 28.1249C119.998 28.1249 120.988 29.1122 120.988 30.3154C120.988 31.5302 119.998 32.4999 118.8 32.4999C117.58 32.4999 116.613 31.5316 116.613 30.3154C116.613 29.1166 117.58 28.1249 118.8 28.1249Z" fill="#0277BD"/>
<path d="M124.655 77.7082C126.923 77.7009 128.495 77.5011 130.395 77.173C136.007 76.1959 137.029 74.144 137.029 70.3625V64.5832H123.904V61.6665H137.53H143.873C147.717 61.6665 151.082 59.8553 152.148 55.5138C153.352 50.5307 153.406 47.4098 152.148 42.2065C151.191 38.3259 149.087 35.4165 145.241 35.4165H139.945V42.8598C139.945 47.1853 136.027 51.4582 131.539 51.4582H120.986C117.307 51.4582 113.695 54.1736 113.695 57.8413V70.3625C113.695 73.9194 116.26 76.5794 119.846 77.1759C119.757 77.1846 122.407 77.7169 124.655 77.7082ZM131.925 71.8748C130.728 71.8748 129.738 70.8875 129.738 69.6844C129.738 68.4696 130.728 67.4998 131.925 67.4998C133.146 67.4998 134.113 68.4682 134.113 69.6844C134.113 70.8832 133.144 71.8748 131.925 71.8748Z" fill="#FFC107"/>
<defs>
<filter id="filter0_bd_639_120" x="0" y="-4" width="516" height="112" filterUnits="userSpaceOnUse" color-interpolation-filters="sRGB">
<feFlood flood-opacity="0" result="BackgroundImageFix"/>
<feGaussianBlur in="BackgroundImageFix" stdDeviation="2"/>
<feComposite in2="SourceAlpha" operator="in" result="effect1_backgroundBlur_639_120"/>
<feColorMatrix in="SourceAlpha" type="matrix" values="0 0 0 0 0 0 0 0 0 0 0 0 0 0 0 0 0 0 127 0" result="hardAlpha"/>
<feOffset dy="4"/>
<feGaussianBlur stdDeviation="2"/>
<feComposite in2="hardAlpha" operator="out"/>
<feColorMatrix type="matrix" values="0 0 0 0 0 0 0 0 0 0 0 0 0 0 0 0 0 0 0.25 0"/>
<feBlend mode="normal" in2="effect1_backgroundBlur_639_120" result="effect2_dropShadow_639_120"/>
<feBlend mode="normal" in="SourceGraphic" in2="effect2_dropShadow_639_120" result="shape"/>
</filter>
<linearGradient id="paint0_linear_639_120" x1="248.815" y1="10.9923" x2="272.094" y2="74.9505" gradientUnits="userSpaceOnUse">
<stop stop-color="#2AA4F4"/>
<stop offset="1" stop-color="#007AD9"/>
</linearGradient>
</defs>
</svg>
